PathFileType  4	(X/Y/Z) C:\Users\antoi\Documents\MyRepositories\mobilecap\ResultsAnalysis
DataRate	CameraRate	NumFrames	NumMarkers	Units	OrigDataRate	OrigDataStartFrame	OrigNumFrames
100.0	100.0	4	51	mm	100.0	225	256
Frame#	Time	r_knee			r_shank_antsup			r_ankle			r_calc			r_5meta			r_toe			L_knee			L_shank_antsup			L_ankle			L_calc			L_5meta			L_toe			r_sh2			r_sh3			r_sh4			L_sh2			L_sh3			r_thigh1			r_thigh2			r_thigh3			r_thigh4			r_thigh5			L_thigh1			L_thigh2			L_thigh3			L_thigh4			r.ASIS			r.PSIS			L.ASIS			L.PSIS			C7			R_Shoulder			L_Shoulder			R_Sternum			L_Sternum			R_humerus			R_elbow_med			R_elbow_lat			R_forearm			R_wrist_radius			R_wrist_ulna			L_humerus			L_elbow_med			L_elbow_lat			L_forearm			L_wrist_radius			L_wrist_ulna			R_HJC			L_HJC			R_HJC_reg			L_HJC_reg			
		X1	Y1	Z1	X2	Y2	Z2	X3	Y3	Z3	X4	Y4	Z4	X5	Y5	Z5	X6	Y6	Z6	X7	Y7	Z7	X8	Y8	Z8	X9	Y9	Z9	X10	Y10	Z10	X11	Y11	Z11	X12	Y12	Z12	X13	Y13	Z13	X14	Y14	Z14	X15	Y15	Z15	X16	Y16	Z16	X17	Y17	Z17	X18	Y18	Z18	X19	Y19	Z19	X20	Y20	Z20	X21	Y21	Z21	X22	Y22	Z22	X23	Y23	Z23	X24	Y24	Z24	X25	Y25	Z25	X26	Y26	Z26	X27	Y27	Z27	X28	Y28	Z28	X29	Y29	Z29	X30	Y30	Z30	X31	Y31	Z31	X32	Y32	Z32	X33	Y33	Z33	X34	Y34	Z34	X35	Y35	Z35	X36	Y36	Z36	X37	Y37	Z37	X38	Y38	Z38	X39	Y39	Z39	X40	Y40	Z40	X41	Y41	Z41	X42	Y42	Z42	X43	Y43	Z43	X44	Y44	Z44	X45	Y45	Z45	X46	Y46	Z46	X47	Y47	Z47	X48	Y48	Z48	X49	Y49	Z49	X50	Y50	Z50	X51	Y51	Z51	

225	2.24000000	-139.00889	793.76788	-364.30533	-118.91051	700.91926	-347.10051	-227.79212	394.88985	-322.94107	-272.67074	418.21843	-387.51295	-203.57075	259.78622	-283.24231	-143.00401	257.15631	-316.15536	-139.03428	786.30659	-757.06619	-110.29810	703.78617	-770.33940	-188.81771	375.77295	-781.32866	-239.72358	389.90548	-706.23730	-162.58775	244.22873	-814.14331	-91.83924	239.60511	-789.50592	-134.92236	589.12992	-331.58499	-188.24292	714.44894	-320.03784	-211.25905	603.63350	-303.21911	-198.90633	722.75361	-775.34211	-212.44249	602.05177	-791.31906	-44.38214	1064.29971	-384.20945	-52.28845	953.29788	-382.21445	-107.02736	933.04207	-348.63335	-156.96798	1068.38828	-368.87937	-156.88945	951.60720	-367.05580	-54.17770	1029.79018	-767.06111	-47.61049	889.75569	-759.41870	-163.52692	1025.22598	-775.38782	-156.34212	892.28014	-762.03516	3.97597	1252.77256	-463.36581	-196.68857	1299.94909	-524.39486	-19.15617	1256.38042	-714.13401	-200.99289	1295.57732	-615.22141	-210.46220	1733.44672	-567.94236	-159.28298	1758.38756	-448.40726	-172.70067	1746.05600	-678.68370	-63.24652	1702.82475	-552.21201	-64.67085	1701.69852	-598.80740	-114.02348	1830.29068	-426.57116	81.32712	1919.38613	-393.63645	35.83524	1946.92762	-352.15578	14.04776	2027.84027	-395.57735	47.06588	2149.57552	-512.21302	61.07578	2172.66174	-462.08276	-139.56556	1815.65452	-709.57957	18.76780	1921.70771	-785.15604	-52.11446	1955.66785	-795.35578	-50.52429	2015.13362	-740.45635	16.10608	2147.10361	-644.78340	7.52535	2171.35243	-690.43090	-80.88935	1170.72778	-480.00055	-97.43532	1173.22715	-668.82324	-79.89066	1189.40089	-491.57130	-87.73138	1181.41279	-657.42086	
226	2.25000000	-135.11769	793.83964	-364.35013	-114.83489	700.93936	-348.09447	-224.06537	395.34934	-321.83017	-269.26171	417.86902	-387.00441	-199.10351	260.85150	-281.43739	-138.79752	257.91847	-314.63301	-137.81081	786.57010	-756.44090	-109.36471	704.04224	-769.86960	-186.71499	375.95311	-779.63543	-237.60454	389.08924	-704.44779	-159.35169	245.09030	-813.59348	-88.49993	241.00233	-789.10623	-130.34890	589.17753	-332.18762	-183.57475	714.52333	-319.68665	-206.53368	603.77652	-302.50417	-198.02742	722.68087	-774.34980	-211.34447	602.10248	-790.03625	-42.30339	1064.80773	-384.97422	-49.44443	953.82268	-383.07017	-103.52279	933.07230	-348.70680	-154.68080	1068.08805	-367.93078	-153.73302	951.41681	-366.56767	-52.46270	1030.51331	-765.56564	-45.56919	890.42808	-757.14785	-161.60085	1025.52566	-776.64075	-154.06731	892.64858	-762.53566	4.32246	1254.14644	-465.17082	-195.90377	1301.05782	-523.20569	-19.49047	1256.52889	-713.40668	-201.04591	1296.29750	-616.17500	-209.61667	1734.44554	-567.44306	-158.20953	1758.96469	-447.81131	-172.83763	1746.83573	-678.14896	-62.59379	1703.96303	-552.42161	-64.28447	1702.63636	-598.95059	-113.57367	1831.54984	-425.14156	81.11285	1921.37828	-389.93500	35.05487	1948.70494	-349.23828	13.26105	2029.34260	-392.57947	45.68420	2150.18562	-509.75944	59.30285	2173.89992	-459.52733	-139.67643	1816.47811	-709.18970	17.08417	1923.36341	-788.80203	-54.18568	1957.02061	-796.88187	-52.75321	2015.93760	-742.15876	12.89030	2147.21913	-645.20025	3.21212	2171.88680	-690.33017	-80.32781	1172.02938	-479.80544	-97.70678	1173.63275	-668.56340	-78.92926	1191.13922	-492.20159	-88.00369	1182.72576	-656.33224	
227	2.26000000	-131.63327	792.91356	-364.47645	-110.43540	699.82196	-349.38121	-219.05920	394.32464	-321.34078	-265.25466	416.28292	-386.15444	-193.08292	260.21651	-280.50655	-133.20990	257.41555	-314.40335	-136.49544	785.92739	-755.72969	-107.34068	703.21274	-768.65159	-183.86427	375.04395	-778.22834	-235.19117	387.07673	-703.05695	-155.18533	244.93644	-813.06588	-84.21419	241.53942	-788.65686	-125.43482	588.08314	-333.18706	-178.44648	713.29889	-319.08166	-201.07357	602.40158	-301.82248	-195.97741	721.59266	-774.21072	-208.63617	601.11298	-789.63869	-40.86624	1064.35167	-385.25843	-47.61802	953.44785	-383.23208	-101.45159	932.36597	-348.56125	-153.17994	1067.07168	-367.46409	-151.78108	950.56819	-366.30698	-51.38109	1030.22326	-764.12937	-44.06638	890.11655	-755.16815	-160.21967	1024.81151	-777.45365	-152.40031	892.02048	-762.74948	4.27754	1254.65889	-465.77856	-195.64950	1301.86098	-522.55438	-20.02576	1255.93507	-712.57161	-201.54300	1296.90612	-616.27647	-208.57458	1734.41218	-566.77063	-156.88164	1758.85855	-447.31001	-173.01883	1746.53851	-677.83840	-62.37642	1704.03518	-552.46344	-65.00692	1701.68782	-597.92638	-112.64951	1831.73777	-424.16147	81.29539	1922.22194	-386.41524	34.65085	1949.34572	-346.59864	12.82124	2029.56725	-389.83844	44.64105	2149.86023	-506.15288	58.13312	2173.83565	-457.04749	-139.75188	1816.35051	-709.35614	15.68555	1923.85330	-791.21309	-55.86234	1957.25227	-798.33785	-54.79920	2015.62007	-744.00547	10.04606	2146.36330	-645.79323	-0.04953	2171.25687	-690.60209	-80.63737	1172.74821	-479.18266	-98.48809	1173.53652	-667.90090	-78.59435	1191.84753	-491.93292	-88.86311	1183.22555	-655.05845	
228	2.27000000	-128.60522	790.98224	-364.55522	-106.01521	697.75890	-350.51036	-213.09724	391.92208	-321.42218	-260.59954	413.43416	-385.19074	-185.58939	258.04104	-280.43639	-126.26284	255.69969	-315.31425	-134.88227	784.29965	-755.06604	-104.51811	701.40915	-766.65057	-180.19934	373.06363	-777.15081	-232.53911	383.92943	-702.19749	-149.86108	243.86840	-812.76808	-78.98429	241.22364	-787.90377	-120.48992	585.96310	-334.34086	-173.23991	710.91700	-318.35823	-195.04249	599.94796	-301.08351	-192.97107	719.64811	-774.75248	-204.83236	599.11035	-789.79495	-40.12509	1062.97468	-385.19769	-46.56301	951.97219	-383.02205	-100.56101	930.86291	-348.37586	-152.45777	1065.55176	-367.51508	-150.83004	948.93101	-366.37030	-50.96122	1028.88041	-762.99807	-42.88756	888.81139	-753.66564	-159.49888	1023.06894	-777.70701	-151.43647	890.31557	-762.40068	3.94071	1254.08285	-465.59769	-195.44474	1302.26426	-522.37994	-20.91575	1254.69304	-711.74211	-202.19215	1297.35679	-615.70913	-207.58896	1733.54034	-565.99814	-155.52364	1757.89695	-447.01493	-173.16591	1745.16560	-677.82741	-62.41004	1703.17255	-552.38670	-66.42819	1699.26416	-596.04299	-111.55654	1830.87384	-423.46525	81.75680	1921.66235	-383.08630	34.51106	1948.66268	-344.15275	12.63334	2028.33947	-387.35186	43.53333	2148.85972	-500.79091	57.47120	2172.35150	-454.72388	-139.90343	1815.19889	-710.03524	14.56538	1922.79981	-792.66301	-57.26429	1956.06106	-799.62298	-56.43987	2013.83526	-745.18816	7.74522	2144.42608	-646.57265	-2.40316	2169.39687	-691.23167	-81.59484	1172.69250	-478.43119	-99.75663	1172.97002	-667.12144	-78.69142	1191.56848	-490.99322	-90.45474	1183.01811	-653.62429	
